<?xml version="1.0" encoding="UTF-8" standalone="no"?>
<!-- Generator: Adobe Illustrator 19.1.0, SVG Export Plug-In . SVG Version: 6.00 Build 0)  -->
<svg xmlns:rdf="http://www.w3.org/1999/02/22-rdf-syntax-ns#" style="enable-background:new 0 0 94.5 14.6;" xmlns="http://www.w3.org/2000/svg" xml:space="preserve" viewBox="0 0 94.5 14.6" height="100%" width="128px" version="1.1" y="0px" x="0px" xmlns:cc="http://creativecommons.org/ns#" xmlns:dc="http://purl.org/dc/elements/1.1/"><metadata><rdf:RDF><cc:Work rdf:about=""><dc:format>image/svg+xml</dc:format><dc:type rdf:resource="http://purl.org/dc/dcmitype/StillImage"/><dc:title/></cc:Work></rdf:RDF></metadata><style type="text/css">
	.st0{display:none;}
	.st1{display:inline;fill:none;}
	.st2{display:inline;fill:#3D3D3D;}
	.st3{font-family:&apos;CorporativeAlt-Regular4&apos;;}
	.st4{font-size:20.2253px;}
	.st5{fill:none;}
	.st6{fill:#16b7b4;}
	.st7{font-family:&apos;Roboto-Regular&apos;;}
	.st8{font-size:2.6967px;}
</style><g class="st0"><rect class="st1" height="21.4" width="263.5" y="-3.3" x="-87.5"/><text transform="matrix(1.0395 0 0 1 -2.7257 13.9588)" class="st2 st3 st4">clocktree</text>
</g><rect class="st5" height="3" width="4.6" y="3.7" x="89.9"/><text transform="matrix(1.0395 0 0 1 89.9081 5.9808)" class="st6 st7 st8">TM</text>
<path class="st6" d="M9.2,13.4c-1,0.8-2.3,1.2-4,1.2-3.3,0-5.2-1.7-5.2-5.1,0-1.5,0.4-2.7,1.3-3.7,0.9-0.9,2.1-1.4,3.7-1.4,2.8,0,4.1,1.5,4.1,3.5l-2,0.2c-0.1-1.2-0.7-2-2.1-2-1.8,0-2.9,1.2-2.9,3.3,0,2.3,1.2,3.4,3.1,3.4,1.2,0,2.4-0.4,3.5-1.2l0.5,1.8z"/><path class="st6" d="M13.1,0v12.7c0.4,0.1,0.9,0.1,1.7,0.1v1.5c-0.5,0.1-1,0.2-1.6,0.2-1.5,0-2.1-0.4-2.1-1.9v-12.6h2z"/><path class="st6" d="M21.9,4.4c1.5,0,2.8,0.4,3.7,1.4s1.4,2.1,1.4,3.7c0,1.6-0.5,2.8-1.4,3.7s-2.2,1.4-3.7,1.4-2.8-0.4-3.7-1.4c-0.9-0.9-1.4-2.1-1.4-3.7-0.1-3.2,2-5.1,5.1-5.1zm0,8.5c1,0,1.7-0.3,2.3-0.9,0.5-0.6,0.8-1.4,0.8-2.5s-0.3-1.9-0.9-2.5c-0.5-0.6-1.3-0.9-2.3-0.9s-1.7,0.3-2.2,0.9-0.8,1.4-0.8,2.5,0.3,1.9,0.8,2.5c0.5,0.6,1.3,0.9,2.3,0.9z"/><path class="st6" d="M38.1,13.4c-1,0.8-2.3,1.2-4,1.2-3.3,0-5.2-1.7-5.2-5.1,0-1.5,0.4-2.7,1.3-3.7,0.9-0.9,2.1-1.4,3.7-1.4,2.7,0.1,4.1,1.6,4.1,3.6l-2,0.2c-0.1-1.3-0.7-2-2.1-2-1.8,0-2.9,1.2-2.9,3.3,0,2.3,1.2,3.4,3.1,3.4,1.2,0,2.4-0.4,3.5-1.2l0.5,1.7z"/><path class="st6" d="M47.3,12.6c0.4,0.7,1.6,0.2,1.6,0.2v1.7c-0.3,0.1-0.7,0.1-1.3,0.1-0.8,0-1.4-0.3-1.8-0.8l-1.8-2.7c-0.7,0.1-1.3,0.1-2,0.1v3.4h-2v-14.6h2.1v5.9c0.8-1,1.8-1.4,3.1-1.4,2.2,0,3.5,1.2,3.5,3,0,1.7-0.9,2.7-2.6,3.3l1.2,1.8zm-5.2-3c1.7,0,2.9-0.2,3.6-0.5s1-0.8,1-1.4c0-1.1-0.6-1.6-1.8-1.6-1.6,0-2.7,1.1-2.7,2.8v0.7z"/><path class="st6" d="M57.7,6.3h-3v5.3c0,1,0.4,1.3,1.2,1.3,0.5,0,1-0.1,1.6-0.3l0.1,1.7c-0.7,0.2-1.5,0.4-2.2,0.4-1.9,0-2.7-0.7-2.7-2.9v-5.5h-1.9v-1.7h1.9v-2.8h2.1v2.8h3v1.7z"/><path class="st6" d="M66.2,4.6l-0.1,1.9c-0.2-0.1-0.5-0.1-0.9-0.1-0.7,0-1.2,0.3-1.7,0.9s-0.7,1.3-0.7,2.2v5.2h-2.1v-8.4c-0.3-0.1-0.7-0.1-1.2-0.1v-1.5c0.3-0.1,0.8-0.2,1.3-0.2,0.9,0,1.7,0.6,1.9,1.8,0.6-1.2,1.4-1.8,2.4-1.8,0.5,0,0.8,0,1.1,0.1z"/><path class="st6" d="M77.2,13.6c-0.6,0.5-2.1,1-4.2,1-3.3,0-5-1.8-5-5,0-3.1,1.8-5.1,5.2-5.1,2.7,0,4,1.3,4,3.1,0,1.2-0.5,1.9-1.6,2.4s-2.8,0.7-5.4,0.8c0.3,1.4,1.3,2.1,3,2.1,1.5,0,2.9-0.5,3.6-1l0.4,1.7zm-7-4.2c2-0.1,3.4-0.3,4-0.5,0.7-0.2,1-0.7,1-1.3,0-0.9-0.6-1.5-2-1.5-1.8,0-3,1.1-3,3.3z"/><path class="st6" d="M88.3,13.6c-0.6,0.5-2.1,1-4.2,1-3.3,0-5-1.8-5-5,0-3.1,1.8-5.1,5.2-5.1,2.7,0,4,1.3,4,3.1,0,1.2-0.5,1.9-1.6,2.4s-2.8,0.7-5.4,0.8c0.3,1.4,1.3,2.1,3,2.1,1.5,0,2.9-0.5,3.6-1l0.4,1.7zm-7.1-4.2c2-0.1,3.4-0.3,4-0.5,0.7-0.2,1-0.7,1-1.3,0-0.9-0.6-1.5-2-1.5-1.7,0-2.9,1.1-3,3.3z"/><rect class="st5" height="0" width="6.2" y="1.7" x="88.5"/></svg>
