<?xml version="1.0" encoding="UTF-8" standalone="no"?>
<!-- Generator: Adobe Illustrator 19.1.0, SVG Export Plug-In . SVG Version: 6.00 Build 0)  -->
<svg xmlns:rdf="http://www.w3.org/1999/02/22-rdf-syntax-ns#" style="enable-background:new 0 0 85.3 85.3;" xmlns="http://www.w3.org/2000/svg" xml:space="preserve" viewBox="0 0 85.3 85.3" height="100%" width="100%" version="1.1" y="0px" x="0px" xmlns:cc="http://creativecommons.org/ns#" xmlns:dc="http://purl.org/dc/elements/1.1/"><metadata><rdf:RDF><cc:Work rdf:about=""><dc:format>image/svg+xml</dc:format><dc:type rdf:resource="http://purl.org/dc/dcmitype/StillImage"/><dc:title/></cc:Work></rdf:RDF></metadata><style type="text/css">
	.st0{fill:none;}
	.st1{fill:#114457;}
	.st2{fill:#F99D1C;}
	.st3{fill:#FFFFFF;}
	.st4{fill:#DF2027;}
	.st5{fill:#00ACC8;}
	.st6{fill:#A5A4A4;}
	.st7{fill:none;stroke:#A5A4A4;stroke-width:2;stroke-miterlimit:10;}
</style><rect class="st0" height="288" width="288" y="-281.5" x="145"/><rect class="st0" height="288" width="288" y="-281.5" x="145"/><path class="st6" d="M42.5,16.2c-6.2,0-11.6,5.4-11.6,11.6,0,2.6,1,5.1,2.7,7,0.1,0.1,0.1,0.1,0.2,0.1h0.1c0.1-0.1,0.2-0.2,0.2-0.3-0.2-0.9-0.7-3.9,0.3-5.7,0.5-0.9,1.4-2,3.1-2,0.6,0,1.2,0.1,1.8,0.3,0.3,0.1,0.5,0.2,0.8,0.3,1.5,0.5,3.4,1.2,5.5,1.2,1.6,0,3-0.4,4.3-1.2,1.4,2.4,1.3,4.5,1,7,0,0.1,0.1,0.3,0.2,0.3,0.1,0.1,0.3,0,0.4-0.1,1.7-1.9,2.6-4.4,2.6-6.9,0-6.3-5.3-11.6-11.6-11.6z"/><rect class="st6" height="2.3" width="7.2" y="58.5" x="49"/><path class="st6" d="M51.1,43l-11.3,19.7h-16.1v-7.2c0-5.4,3.2-9,9.6-10.7,0,0,6.8,12.6,6.8,12.6l4.9-8.5-0.1-2,1.5-1.8c0.3-0.3,0.4-0.9,0-1.2l-2.7-2.1c-0.3-0.3-0.9-0.3-1.3,0l-2.7,2.1c-0.3,0.3-0.3,0.9,0,1.2l1.5,1.8-0.2,6.8-6-11c-0.3-0.5-0.8-0.7-1.4-0.6-0.3,0.1-0.7,0.2-1,0.3-7.4,2-11.4,6.6-11.4,13.1v8.5c0,0.7,0.6,1.2,1.2,1.2h40.1c0.7,0,1.2-0.6,1.2-1.2v-8.5c0-6.1-3.5-10.5-10.2-12.7-0.4-0.1-0.7-0.2-1.1-0.3-0.6-0.3-1.1,0.1-1.3,0.5zm10.2,19.7h-18.6l10-17.7c5.6,1.8,8.6,5.4,8.6,10.4v7.3z"/><circle cy="42.7" cx="42.7" r="41.7" class="st7"/></svg>
