<?xml version="1.0" encoding="utf-8"?>
<!-- Generator: Adobe Illustrator 20.1.0, SVG Export Plug-In . SVG Version: 6.00 Build 0)  -->
<svg version="1.1" id="Layer_1" xmlns="http://www.w3.org/2000/svg" xmlns:xlink="http://www.w3.org/1999/xlink" x="0px" y="0px"
	 viewBox="0 0 455.3 168" style="enable-background:new 0 0 455.3 168;" xml:space="preserve">
<style type="text/css">
	.st0{fill:#FFFFFF;stroke:#9E9E9E;stroke-width:8;stroke-miterlimit:10;}
	.st1{fill:#434343;stroke:#737373;stroke-width:16;stroke-miterlimit:10;}
	.st2{fill:#ECEDEE;}
	.st3{fill:#BCC3C7;}
	.st4{fill:#2C424F;}
	.st5{fill:#EFC84A;}
	.st6{fill:#D1933C;}
	.st7{fill:#5E5F5F;}
	.st8{fill:#FFFFFF;stroke:#9E9E9E;stroke-width:6;stroke-miterlimit:10;}
	.st9{fill:#9D9D9D;}
	.st10{fill:#FFFFFF;}
	.st11{fill:#848484;}
</style>
<path class="st0" d="M81.1,161.1h294.2c41.8,0,76-34.2,76-76v-3.2c0-41.8-34.2-76-76-76H81.1c-41.8,0-76,34.2-76,76v3.2
	C5.1,126.9,39.3,161.1,81.1,161.1z"/>
<circle class="st1" cx="84" cy="84" r="76"/>
<g>
	<path class="st2" d="M66.4,65c0.1-8.1,8.6-14.7,19-14.6c10.4,0.1,18.8,6.8,18.7,15l-0.1,19.2h7.5l0.1-19.2
		C111.7,53.2,100,43.1,85.5,43C70.9,42.9,59,52.7,58.9,65l-0.1,19.7h7.5L66.4,65z"/>
	<path class="st3" d="M85.4,50.4c10.4,0.1,18.8,6.8,18.7,15l-0.1,19.2h7.5l0.1-19.2C111.7,53.2,100,43.1,85.5,43c-0.1,0-0.2,0-0.2,0
		v7.5C85.3,50.4,85.3,50.4,85.4,50.4z"/>
	<path class="st4" d="M88.7,95.9l2.3,14.5H79.4L81.8,96c-1.7-1.1-2.8-3-2.8-5.2c0-3.4,2.8-6.2,6.2-6.2c3.4,0,6.2,2.8,6.2,6.2
		C91.4,93,90.3,94.8,88.7,95.9z"/>
	<path class="st5" d="M114.8,77.7v34.1c0,3.1-2.5,5.6-5.6,5.6H61.1c-3.1,0-5.6-2.5-5.6-5.6V77.7H114.8z M91,110.5l-2.3-14.5
		c1.6-1.1,2.6-3,2.6-5.1c0-3.4-2.8-6.2-6.2-6.2c-3.4,0-6.2,2.8-6.2,6.2c0,2.2,1.1,4.1,2.8,5.2l-2.4,14.4H91z"/>
	<path class="st6" d="M111.5,77.7h-7.5H85.2v6.9c3.4,0,6.2,2.8,6.2,6.2c0,2.1-1,3.9-2.6,5.1l2.3,14.5h-5.8v7h24
		c3.1,0,5.6-2.5,5.6-5.6V77.7H111.5z"/>
</g>
<g>
	<path class="st7" d="M193.6,86.8V36.1h10.5v19.3h19.7V36.1h10.5v50.7h-10.5V64.2h-19.7v22.6H193.6z"/>
	<path class="st7" d="M254.2,86.8h-10.5V36.1h10.5V86.8z"/>
	<path class="st7" d="M298.2,64.9c-3,2.5-7.2,3.7-12.7,3.7h-10.6v18.2h-10.5V36.1h21.8c5,0,9,1.3,12,3.9c3,2.6,4.5,6.7,4.5,12.1
		C302.6,58.2,301.1,62.4,298.2,64.9z M290.1,46.6c-1.3-1.1-3.2-1.7-5.6-1.7h-9.5v14.9h9.5c2.4,0,4.3-0.6,5.6-1.8
		c1.3-1.2,2-3.1,2-5.8C292.1,49.6,291.4,47.7,290.1,46.6z"/>
	<path class="st7" d="M320.4,36.1h12l17.9,50.7h-11.5l-3.3-10.4h-18.7l-3.4,10.4h-11.1L320.4,36.1z M319.7,67.7h13l-6.4-20
		L319.7,67.7z"/>
	<path class="st7" d="M371.3,36.1h12l17.9,50.7h-11.5l-3.3-10.4h-18.7l-3.4,10.4h-11.1L371.3,36.1z M370.6,67.7h13l-6.4-20
		L370.6,67.7z"/>
</g>
<g>
	<path class="st7" d="M211.1,111.9c-0.5-2.3-1.5-4-2.9-4.9c-1.4-1-3.3-1.5-5.6-1.5c-1.6,0-3,0.3-4.2,1c-1.2,0.7-2.2,1.5-2.9,2.6
		c-0.8,1.1-1.3,2.4-1.7,3.8c-0.4,1.4-0.5,3-0.5,4.6c0,1.5,0.2,3,0.5,4.4c0.3,1.5,0.8,2.8,1.6,3.9c0.7,1.1,1.7,2.1,2.9,2.8
		c1.2,0.7,2.8,1.1,4.6,1.1c1.2,0,2.2-0.2,3.2-0.6c1-0.4,1.8-0.9,2.5-1.6s1.3-1.5,1.8-2.4c0.5-0.9,0.9-1.9,1.1-3h2.7
		c-0.3,1.3-0.7,2.5-1.3,3.7s-1.3,2.2-2.3,3.1c-0.9,0.9-2.1,1.6-3.4,2.1c-1.3,0.5-2.9,0.8-4.7,0.8c-2.1,0-3.9-0.4-5.4-1.1
		s-2.7-1.8-3.6-3.1c-0.9-1.3-1.6-2.8-2.1-4.5c-0.4-1.7-0.6-3.5-0.6-5.5c0-2.6,0.3-4.8,1-6.6s1.5-3.3,2.7-4.4c1.1-1.1,2.5-2,4-2.5
		c1.5-0.5,3.2-0.8,5-0.8c1.4,0,2.7,0.2,3.9,0.5c1.2,0.4,2.2,0.9,3.2,1.6c0.9,0.7,1.7,1.6,2.3,2.7c0.6,1.1,1,2.3,1.2,3.7H211.1z"/>
	<path class="st7" d="M218,117.7c0-2,0.3-3.8,0.8-5.6s1.3-3.2,2.4-4.5c1.1-1.3,2.4-2.3,3.9-3.1c1.6-0.8,3.4-1.1,5.4-1.1
		c2.1,0,4,0.4,5.6,1.1c1.6,0.7,2.9,1.8,4,3.1c1.1,1.3,1.9,2.8,2.4,4.6c0.5,1.7,0.8,3.6,0.8,5.6c0,2-0.3,3.8-0.8,5.5
		c-0.5,1.7-1.3,3.2-2.4,4.5c-1.1,1.3-2.4,2.3-4,3.1c-1.6,0.8-3.4,1.1-5.5,1.1c-2.1,0-3.9-0.4-5.5-1.1c-1.6-0.8-2.9-1.8-4-3.1
		c-1.1-1.3-1.8-2.8-2.4-4.5C218.3,121.5,218,119.6,218,117.7z M230.7,129.7c1.8,0,3.3-0.3,4.5-1c1.3-0.7,2.3-1.6,3.1-2.7
		c0.8-1.1,1.4-2.4,1.8-3.8c0.4-1.5,0.6-3,0.6-4.6c0-1.9-0.2-3.6-0.7-5.1c-0.5-1.5-1.1-2.8-2-3.8c-0.9-1.1-1.9-1.9-3.2-2.4
		s-2.7-0.8-4.2-0.8c-1.7,0-3.2,0.3-4.5,1c-1.3,0.7-2.3,1.6-3.1,2.7c-0.8,1.1-1.4,2.4-1.8,3.9c-0.4,1.5-0.6,3-0.6,4.6
		c0,1.6,0.2,3.1,0.6,4.6c0.4,1.5,1,2.7,1.8,3.8c0.8,1.1,1.9,2,3.1,2.6C227.4,129.4,228.9,129.7,230.7,129.7z"/>
	<path class="st7" d="M248.3,131.2V104h3.9l8.9,23.9h0.1l8.7-23.9h3.9v27.1h-2.6V107h-0.1l-8.9,24.2h-2.4l-8.9-24.2h-0.1v24.2H248.3
		z"/>
	<path class="st7" d="M279.7,131.2V104h9.9c1.8,0,3.2,0.2,4.4,0.6s2,1,2.7,1.7c0.7,0.7,1.1,1.5,1.4,2.4c0.3,0.9,0.4,1.9,0.4,2.9
		c0,1.5-0.3,2.8-0.9,3.7c-0.6,1-1.4,1.8-2.4,2.3c-1,0.6-2.1,1-3.3,1.2c-1.2,0.2-2.5,0.3-3.8,0.3h-5.8v12H279.7z M288.1,117
		c1.2,0,2.3-0.1,3.2-0.2c1-0.2,1.8-0.4,2.4-0.8c0.7-0.4,1.2-1,1.5-1.7c0.4-0.7,0.5-1.7,0.5-2.8c0-1.7-0.6-3-1.7-3.9
		c-1.1-0.9-2.9-1.3-5.3-1.3h-6.6V117H288.1z"/>
	<path class="st7" d="M302.8,131.2V104h2.6v25H320v2.2H302.8z"/>
	<path class="st7" d="M324.7,131.2V104h2.6v27.1H324.7z"/>
	<path class="st7" d="M331.8,131.2l10.7-27.1h2.9l10.4,27.1h-2.6l-3.1-8.5h-12.4l-3.2,8.5H331.8z M338.5,120.5h10.6l-5.3-14.3
		L338.5,120.5z"/>
	<path class="st7" d="M362,107.5L362,107.5l-0.1,23.7h-2.6V104h2.9l15.7,23.7h0.1V104h2.6v27.1h-3L362,107.5z"/>
	<path class="st7" d="M384.2,104H404v2.2h-8.6v25h-2.6v-25h-8.6V104z"/>
</g>
</svg>
